<mxfile host="app.diagrams.net" modified="2022-02-26T04:31:04.411Z" agent="5.0 (Windows NT 10.0; Win64; x64) AppleWebKit/537.36 (KHTML, like Gecko) Chrome/98.0.4758.102 Safari/537.36" etag="po7HLCj8i1Zfhy_QNXjT" version="16.6.1" type="github">
  <diagram id="JLk9FKHlb9LdRjsdpeua" name="Page-1">
    <mxGraphModel dx="1865" dy="1748" grid="1" gridSize="10" guides="1" tooltips="1" connect="1" arrows="1" fold="1" page="1" pageScale="1" pageWidth="827" pageHeight="1169" math="0" shadow="0">
      <root>
        <mxCell id="0" />
        <mxCell id="1" parent="0" />
        <mxCell id="YeQBJPrLlTCUJduyqjX9-6" style="edgeStyle=orthogonalEdgeStyle;rounded=0;orthogonalLoop=1;jettySize=auto;html=1;exitX=0.5;exitY=1;exitDx=0;exitDy=0;entryX=0.5;entryY=0;entryDx=0;entryDy=0;fontFamily=Times New Roman;fontSize=17;shadow=1;sketch=0;" parent="1" source="YeQBJPrLlTCUJduyqjX9-1" target="YeQBJPrLlTCUJduyqjX9-3" edge="1">
          <mxGeometry relative="1" as="geometry" />
        </mxCell>
        <mxCell id="YeQBJPrLlTCUJduyqjX9-7" style="edgeStyle=orthogonalEdgeStyle;rounded=0;orthogonalLoop=1;jettySize=auto;html=1;exitX=0.5;exitY=1;exitDx=0;exitDy=0;entryX=0.5;entryY=0;entryDx=0;entryDy=0;fontFamily=Times New Roman;fontSize=17;shadow=1;sketch=0;" parent="1" source="YeQBJPrLlTCUJduyqjX9-1" target="YeQBJPrLlTCUJduyqjX9-2" edge="1">
          <mxGeometry relative="1" as="geometry" />
        </mxCell>
        <mxCell id="YeQBJPrLlTCUJduyqjX9-8" style="edgeStyle=orthogonalEdgeStyle;rounded=0;orthogonalLoop=1;jettySize=auto;html=1;exitX=0.5;exitY=1;exitDx=0;exitDy=0;fontFamily=Times New Roman;fontSize=17;shadow=1;sketch=0;" parent="1" source="YeQBJPrLlTCUJduyqjX9-1" target="YeQBJPrLlTCUJduyqjX9-4" edge="1">
          <mxGeometry relative="1" as="geometry" />
        </mxCell>
        <mxCell id="YeQBJPrLlTCUJduyqjX9-1" value="SSM招聘系统" style="rounded=1;whiteSpace=wrap;html=1;fontFamily=Times New Roman;fontSize=17;shadow=1;sketch=0;fillColor=#fff2cc;strokeColor=#d6b656;" parent="1" vertex="1">
          <mxGeometry x="-480" y="-1120" width="180" height="60" as="geometry" />
        </mxCell>
        <mxCell id="YeQBJPrLlTCUJduyqjX9-22" style="edgeStyle=orthogonalEdgeStyle;rounded=0;sketch=0;orthogonalLoop=1;jettySize=auto;html=1;exitX=0.5;exitY=1;exitDx=0;exitDy=0;entryX=0.5;entryY=0;entryDx=0;entryDy=0;shadow=1;fontFamily=Times New Roman;fontSize=17;" parent="1" source="YeQBJPrLlTCUJduyqjX9-2" target="YeQBJPrLlTCUJduyqjX9-5" edge="1">
          <mxGeometry relative="1" as="geometry" />
        </mxCell>
        <mxCell id="YeQBJPrLlTCUJduyqjX9-23" style="edgeStyle=orthogonalEdgeStyle;rounded=0;sketch=0;orthogonalLoop=1;jettySize=auto;html=1;exitX=0.5;exitY=1;exitDx=0;exitDy=0;entryX=0.5;entryY=0;entryDx=0;entryDy=0;shadow=1;fontFamily=Times New Roman;fontSize=17;" parent="1" source="YeQBJPrLlTCUJduyqjX9-2" target="YeQBJPrLlTCUJduyqjX9-9" edge="1">
          <mxGeometry relative="1" as="geometry" />
        </mxCell>
        <mxCell id="YeQBJPrLlTCUJduyqjX9-24" style="edgeStyle=orthogonalEdgeStyle;rounded=0;sketch=0;orthogonalLoop=1;jettySize=auto;html=1;exitX=0.5;exitY=1;exitDx=0;exitDy=0;entryX=0.5;entryY=0;entryDx=0;entryDy=0;shadow=1;fontFamily=Times New Roman;fontSize=17;" parent="1" source="YeQBJPrLlTCUJduyqjX9-2" target="YeQBJPrLlTCUJduyqjX9-11" edge="1">
          <mxGeometry relative="1" as="geometry" />
        </mxCell>
        <mxCell id="YeQBJPrLlTCUJduyqjX9-25" style="edgeStyle=orthogonalEdgeStyle;rounded=0;sketch=0;orthogonalLoop=1;jettySize=auto;html=1;exitX=0.5;exitY=1;exitDx=0;exitDy=0;entryX=0.5;entryY=0;entryDx=0;entryDy=0;shadow=1;fontFamily=Times New Roman;fontSize=17;" parent="1" source="YeQBJPrLlTCUJduyqjX9-2" target="YeQBJPrLlTCUJduyqjX9-12" edge="1">
          <mxGeometry relative="1" as="geometry" />
        </mxCell>
        <mxCell id="YeQBJPrLlTCUJduyqjX9-26" style="edgeStyle=orthogonalEdgeStyle;rounded=0;sketch=0;orthogonalLoop=1;jettySize=auto;html=1;exitX=0.5;exitY=1;exitDx=0;exitDy=0;entryX=0.5;entryY=0;entryDx=0;entryDy=0;shadow=1;fontFamily=Times New Roman;fontSize=17;" parent="1" source="YeQBJPrLlTCUJduyqjX9-2" target="YeQBJPrLlTCUJduyqjX9-10" edge="1">
          <mxGeometry relative="1" as="geometry" />
        </mxCell>
        <mxCell id="YeQBJPrLlTCUJduyqjX9-27" style="edgeStyle=orthogonalEdgeStyle;rounded=0;sketch=0;orthogonalLoop=1;jettySize=auto;html=1;exitX=0.5;exitY=1;exitDx=0;exitDy=0;entryX=0.5;entryY=0;entryDx=0;entryDy=0;shadow=1;fontFamily=Times New Roman;fontSize=17;" parent="1" source="YeQBJPrLlTCUJduyqjX9-2" target="YeQBJPrLlTCUJduyqjX9-13" edge="1">
          <mxGeometry relative="1" as="geometry" />
        </mxCell>
        <mxCell id="YeQBJPrLlTCUJduyqjX9-2" value="求职者" style="rounded=1;whiteSpace=wrap;html=1;fillColor=#d5e8d4;fontFamily=Times New Roman;fontSize=17;shadow=1;sketch=0;strokeColor=#82b366;" parent="1" vertex="1">
          <mxGeometry x="-670" y="-990" width="120" height="60" as="geometry" />
        </mxCell>
        <mxCell id="YeQBJPrLlTCUJduyqjX9-28" style="edgeStyle=orthogonalEdgeStyle;rounded=0;sketch=0;orthogonalLoop=1;jettySize=auto;html=1;exitX=0.5;exitY=1;exitDx=0;exitDy=0;entryX=0.5;entryY=0;entryDx=0;entryDy=0;shadow=1;fontFamily=Times New Roman;fontSize=17;" parent="1" source="YeQBJPrLlTCUJduyqjX9-3" target="YeQBJPrLlTCUJduyqjX9-14" edge="1">
          <mxGeometry relative="1" as="geometry" />
        </mxCell>
        <mxCell id="YeQBJPrLlTCUJduyqjX9-33" style="edgeStyle=orthogonalEdgeStyle;rounded=0;sketch=0;orthogonalLoop=1;jettySize=auto;html=1;exitX=0.5;exitY=1;exitDx=0;exitDy=0;entryX=0.5;entryY=0;entryDx=0;entryDy=0;shadow=1;fontFamily=Times New Roman;fontSize=17;" parent="1" source="YeQBJPrLlTCUJduyqjX9-3" target="YeQBJPrLlTCUJduyqjX9-15" edge="1">
          <mxGeometry relative="1" as="geometry" />
        </mxCell>
        <mxCell id="YeQBJPrLlTCUJduyqjX9-34" style="edgeStyle=orthogonalEdgeStyle;rounded=0;sketch=0;orthogonalLoop=1;jettySize=auto;html=1;exitX=0.5;exitY=1;exitDx=0;exitDy=0;shadow=1;fontFamily=Times New Roman;fontSize=17;" parent="1" source="YeQBJPrLlTCUJduyqjX9-3" target="YeQBJPrLlTCUJduyqjX9-16" edge="1">
          <mxGeometry relative="1" as="geometry" />
        </mxCell>
        <mxCell id="YeQBJPrLlTCUJduyqjX9-35" style="edgeStyle=orthogonalEdgeStyle;rounded=0;sketch=0;orthogonalLoop=1;jettySize=auto;html=1;exitX=0.5;exitY=1;exitDx=0;exitDy=0;entryX=0.5;entryY=0;entryDx=0;entryDy=0;shadow=1;fontFamily=Times New Roman;fontSize=17;" parent="1" source="YeQBJPrLlTCUJduyqjX9-3" target="YeQBJPrLlTCUJduyqjX9-17" edge="1">
          <mxGeometry relative="1" as="geometry" />
        </mxCell>
        <mxCell id="YeQBJPrLlTCUJduyqjX9-3" value="企业 HR" style="rounded=1;whiteSpace=wrap;html=1;fontFamily=Times New Roman;fontSize=17;shadow=1;sketch=0;fillColor=#dae8fc;strokeColor=#6c8ebf;" parent="1" vertex="1">
          <mxGeometry x="-450" y="-990" width="120" height="60" as="geometry" />
        </mxCell>
        <mxCell id="YeQBJPrLlTCUJduyqjX9-29" style="edgeStyle=orthogonalEdgeStyle;rounded=0;sketch=0;orthogonalLoop=1;jettySize=auto;html=1;exitX=0.5;exitY=1;exitDx=0;exitDy=0;entryX=0.5;entryY=0;entryDx=0;entryDy=0;shadow=1;fontFamily=Times New Roman;fontSize=17;" parent="1" source="YeQBJPrLlTCUJduyqjX9-4" target="YeQBJPrLlTCUJduyqjX9-18" edge="1">
          <mxGeometry relative="1" as="geometry" />
        </mxCell>
        <mxCell id="YeQBJPrLlTCUJduyqjX9-30" style="edgeStyle=orthogonalEdgeStyle;rounded=0;sketch=0;orthogonalLoop=1;jettySize=auto;html=1;exitX=0.5;exitY=1;exitDx=0;exitDy=0;entryX=0.5;entryY=0;entryDx=0;entryDy=0;shadow=1;fontFamily=Times New Roman;fontSize=17;" parent="1" source="YeQBJPrLlTCUJduyqjX9-4" target="YeQBJPrLlTCUJduyqjX9-19" edge="1">
          <mxGeometry relative="1" as="geometry" />
        </mxCell>
        <mxCell id="YeQBJPrLlTCUJduyqjX9-31" style="edgeStyle=orthogonalEdgeStyle;rounded=0;sketch=0;orthogonalLoop=1;jettySize=auto;html=1;exitX=0.5;exitY=1;exitDx=0;exitDy=0;entryX=0.5;entryY=0;entryDx=0;entryDy=0;shadow=1;fontFamily=Times New Roman;fontSize=17;" parent="1" source="YeQBJPrLlTCUJduyqjX9-4" target="YeQBJPrLlTCUJduyqjX9-20" edge="1">
          <mxGeometry relative="1" as="geometry" />
        </mxCell>
        <mxCell id="YeQBJPrLlTCUJduyqjX9-32" style="edgeStyle=orthogonalEdgeStyle;rounded=0;sketch=0;orthogonalLoop=1;jettySize=auto;html=1;exitX=0.5;exitY=1;exitDx=0;exitDy=0;entryX=0.5;entryY=0;entryDx=0;entryDy=0;shadow=1;fontFamily=Times New Roman;fontSize=17;" parent="1" source="YeQBJPrLlTCUJduyqjX9-4" target="YeQBJPrLlTCUJduyqjX9-21" edge="1">
          <mxGeometry relative="1" as="geometry" />
        </mxCell>
        <mxCell id="YeQBJPrLlTCUJduyqjX9-4" value="管理员" style="rounded=1;whiteSpace=wrap;html=1;fontFamily=Times New Roman;fontSize=17;shadow=1;sketch=0;fillColor=#e1d5e7;strokeColor=#9673a6;" parent="1" vertex="1">
          <mxGeometry x="-250" y="-990" width="120" height="60" as="geometry" />
        </mxCell>
        <mxCell id="YeQBJPrLlTCUJduyqjX9-5" value="职位搜索" style="rounded=1;verticalAlign=middle;horizontal=1;whiteSpace=wrap;html=1;fontSize=20;shadow=1;fillColor=#d5e8d4;strokeColor=#82b366;" parent="1" vertex="1">
          <mxGeometry x="-790" y="-850" width="40" height="170" as="geometry" />
        </mxCell>
        <mxCell id="YeQBJPrLlTCUJduyqjX9-9" value="职位申请" style="rounded=1;verticalAlign=middle;horizontal=1;whiteSpace=wrap;html=1;fontSize=20;shadow=1;fillColor=#d5e8d4;strokeColor=#82b366;" parent="1" vertex="1">
          <mxGeometry x="-740" y="-850" width="40" height="170" as="geometry" />
        </mxCell>
        <mxCell id="YeQBJPrLlTCUJduyqjX9-10" value="我的简历" style="rounded=1;verticalAlign=middle;horizontal=1;whiteSpace=wrap;html=1;fontSize=20;shadow=1;fillColor=#d5e8d4;strokeColor=#82b366;" parent="1" vertex="1">
          <mxGeometry x="-690" y="-850" width="40" height="170" as="geometry" />
        </mxCell>
        <mxCell id="YeQBJPrLlTCUJduyqjX9-11" value="消息中心" style="rounded=1;verticalAlign=middle;horizontal=1;whiteSpace=wrap;html=1;fontSize=20;shadow=1;fillColor=#f5f5f5;fontColor=#333333;strokeColor=#666666;" parent="1" vertex="1">
          <mxGeometry x="-540" y="-850" width="40" height="170" as="geometry" />
        </mxCell>
        <mxCell id="YeQBJPrLlTCUJduyqjX9-12" value="通知公告" style="rounded=1;verticalAlign=middle;horizontal=1;whiteSpace=wrap;html=1;fontSize=20;shadow=1;fillColor=#d5e8d4;strokeColor=#82b366;" parent="1" vertex="1">
          <mxGeometry x="-590" y="-850" width="40" height="170" as="geometry" />
        </mxCell>
        <mxCell id="YeQBJPrLlTCUJduyqjX9-13" value="个人中心" style="rounded=1;verticalAlign=middle;horizontal=1;whiteSpace=wrap;html=1;fontSize=20;shadow=1;fillColor=#d5e8d4;strokeColor=#82b366;" parent="1" vertex="1">
          <mxGeometry x="-640" y="-850" width="40" height="170" as="geometry" />
        </mxCell>
        <mxCell id="YeQBJPrLlTCUJduyqjX9-14" value="HR入驻" style="rounded=1;verticalAlign=middle;horizontal=1;whiteSpace=wrap;html=1;fontSize=20;shadow=1;fillColor=#dae8fc;strokeColor=#6c8ebf;" parent="1" vertex="1">
          <mxGeometry x="-480" y="-850" width="40" height="170" as="geometry" />
        </mxCell>
        <mxCell id="YeQBJPrLlTCUJduyqjX9-15" value="职位发布" style="rounded=1;verticalAlign=middle;horizontal=1;whiteSpace=wrap;html=1;fontSize=20;shadow=1;fillColor=#dae8fc;strokeColor=#6c8ebf;" parent="1" vertex="1">
          <mxGeometry x="-430" y="-850" width="40" height="170" as="geometry" />
        </mxCell>
        <mxCell id="YeQBJPrLlTCUJduyqjX9-16" value="处理申请" style="rounded=1;verticalAlign=middle;horizontal=1;whiteSpace=wrap;html=1;fontSize=20;shadow=1;fillColor=#dae8fc;strokeColor=#6c8ebf;" parent="1" vertex="1">
          <mxGeometry x="-380" y="-850" width="40" height="170" as="geometry" />
        </mxCell>
        <mxCell id="YeQBJPrLlTCUJduyqjX9-17" value="查看简历" style="rounded=1;verticalAlign=middle;horizontal=1;whiteSpace=wrap;html=1;fontSize=20;shadow=1;fillColor=#dae8fc;strokeColor=#6c8ebf;" parent="1" vertex="1">
          <mxGeometry x="-330" y="-850" width="40" height="170" as="geometry" />
        </mxCell>
        <mxCell id="YeQBJPrLlTCUJduyqjX9-18" value="企业管理" style="rounded=1;verticalAlign=middle;horizontal=1;whiteSpace=wrap;html=1;fontSize=20;shadow=1;fillColor=#e1d5e7;strokeColor=#9673a6;" parent="1" vertex="1">
          <mxGeometry x="-260" y="-850" width="40" height="170" as="geometry" />
        </mxCell>
        <mxCell id="YeQBJPrLlTCUJduyqjX9-19" value="用户管理" style="rounded=1;verticalAlign=middle;horizontal=1;whiteSpace=wrap;html=1;fontSize=20;shadow=1;fillColor=#e1d5e7;strokeColor=#9673a6;" parent="1" vertex="1">
          <mxGeometry x="-210" y="-850" width="40" height="170" as="geometry" />
        </mxCell>
        <mxCell id="YeQBJPrLlTCUJduyqjX9-20" value="公告管理" style="rounded=1;verticalAlign=middle;horizontal=1;whiteSpace=wrap;html=1;fontSize=20;shadow=1;fillColor=#e1d5e7;strokeColor=#9673a6;" parent="1" vertex="1">
          <mxGeometry x="-160" y="-850" width="40" height="170" as="geometry" />
        </mxCell>
        <mxCell id="YeQBJPrLlTCUJduyqjX9-21" value="消息管理" style="rounded=1;verticalAlign=middle;horizontal=1;whiteSpace=wrap;html=1;fontSize=20;shadow=1;fillColor=#e1d5e7;strokeColor=#9673a6;" parent="1" vertex="1">
          <mxGeometry x="-110" y="-850" width="40" height="170" as="geometry" />
        </mxCell>
      </root>
    </mxGraphModel>
  </diagram>
</mxfile>
